# xmcd
#
# Track frame offsets: 
#        150
#        19172
#        43079
#        62208
#        79393
#        101417
#        129713
#        145763
#        188214
#        210407
#
# Disc length: 3067 seconds
#
# Revision: 0
# Processed by: cddbd v1.4PL0 Copyright (c) Steve Scherf et al.
# Submitted via: ExactAudioCopy v0.95a3
#
DISCID=8d0bf90a
DTITLE=Chris Duarte - Romp
DYEAR=2003
DGENRE=Blues
TTITLE0=Do the Romp
TTITLE1=101
TTITLE2=Fire's Gone Out
TTITLE3=Like Eric
TTITLE4=My, My
TTITLE5=One More Cup
TTITLE6=Bb Blues
TTITLE7=Last Night
TTITLE8=Mr. Neighbor
TTITLE9=Take It to the Lord
EXTD=
EXTT0=
EXTT1=
EXTT2=
EXTT3=
EXTT4=
EXTT5=
EXTT6=
EXTT7=
EXTT8=
EXTT9=
PLAYORDER=
